HIERARCHY
ROOT Hips
{
	OFFSET 0.000000 0.000000 0.000000
	CHANNELS 6 Xposition Yposition Zposition Zrotation Yrotation Xrotation 
	JOINT LHipJoint
	{
		OFFSET 0.000000 0.000000 0.000000
		CHANNELS 3 Zrotation Yrotation Xrotation
		JOINT LeftUpLeg
		{
			OFFSET 1.363060 -1.794630 0.839290
			CHANNELS 3 Zrotation Yrotation Xrotation
			JOINT LeftLeg
			{
				OFFSET 2.448110 -6.726130 0.000000
				CHANNELS 3 Zrotation Yrotation Xrotation
				JOINT LeftFoot
				{
					OFFSET 2.562200 -7.039590 0.000000
					CHANNELS 3 Zrotation Yrotation Xrotation
					JOINT LeftToeBase
					{
						OFFSET 0.157640 -0.433110 2.322550
						CHANNELS 3 Zrotation Yrotation Xrotation
						End Site
						{
							OFFSET 0.000000 0.000000 0.000000
						}
					}
				}
			}
		}
	}
	JOINT RHipJoint
	{
		OFFSET 0.000000 0.000000 0.000000
		CHANNELS 3 Zrotation Yrotation Xrotation
		JOINT RightUpLeg
		{
			OFFSET -1.305520 -1.794630 0.839290
			CHANNELS 3 Zrotation Yrotation Xrotation
			JOINT RightLeg
			{
				OFFSET -2.542530 -6.985550 0.000000
				CHANNELS 3 Zrotation Yrotation Xrotation
				JOINT RightFoot
				{
					OFFSET -2.568260 -7.056230 0.000000
					CHANNELS 3 Zrotation Yrotation Xrotation
					JOINT RightToeBase
					{
						OFFSET -0.164730 -0.452590 2.363150
						CHANNELS 3 Zrotation Yrotation Xrotation
						End Site
						{
							OFFSET 0.000000 0.000000 0.000000
						}
					}
				}
			}
		}
	}
	JOINT LowerBack
	{
		OFFSET 0.000000 0.000000 0.000000
		CHANNELS 3 Zrotation Yrotation Xrotation
		JOINT Spine
		{
			OFFSET 0.028270 2.035590 -0.193380
			CHANNELS 3 Zrotation Yrotation Xrotation
			JOINT Spine1
			{
				OFFSET 0.056720 2.048850 -0.042750
				CHANNELS 3 Zrotation Yrotation Xrotation
				JOINT Neck
				{
					OFFSET 0.000000 0.000000 0.000000
					CHANNELS 3 Zrotation Yrotation Xrotation
					JOINT Neck1
					{
						OFFSET -0.054170 1.746240 0.172020
						CHANNELS 3 Zrotation Yrotation Xrotation
						JOINT Head
						{
							OFFSET 0.104070 1.761360 -0.123970
							CHANNELS 3 Zrotation Yrotation Xrotation
							End Site
							{
								OFFSET 0.000000 0.000000 0.000000
							}
						}
					}
				}
				JOINT LeftShoulder
				{
					OFFSET 0.000000 0.000000 0.000000
					CHANNELS 3 Zrotation Yrotation Xrotation
					JOINT LeftArm
					{
						OFFSET 3.362410 1.200890 -0.311210
						CHANNELS 3 Zrotation Yrotation Xrotation
						JOINT LeftForeArm
						{
							OFFSET 4.983000 -0.000000 -0.000000
							CHANNELS 3 Zrotation Yrotation Xrotation
							JOINT LeftHand
							{
								OFFSET 3.483560 -0.000000 -0.000000
								CHANNELS 3 Zrotation Yrotation Xrotation
								JOINT LeftFingerBase
								{
									OFFSET 0.000000 0.000000 0.000000
									CHANNELS 3 Zrotation Yrotation Xrotation
									JOINT LeftHandIndex1
									{
										OFFSET 0.715260 -0.000000 -0.000000
										CHANNELS 3 Zrotation Yrotation Xrotation
										End Site
										{
											OFFSET 0.000000 0.000000 0.000000
										}
									}
								}
								JOINT LThumb
								{
									OFFSET 0.000000 0.000000 0.000000
									CHANNELS 3 Zrotation Yrotation Xrotation
									End Site
									{
										OFFSET 0.000000 0.000000 0.000000
									}
								}
							}
						}
					}
				}
				JOINT RightShoulder
				{
					OFFSET 0.000000 0.000000 0.000000
					CHANNELS 3 Zrotation Yrotation Xrotation
					JOINT RightArm
					{
						OFFSET -3.136600 1.374050 -0.404650
						CHANNELS 3 Zrotation Yrotation Xrotation
						JOINT RightForeArm
						{
							OFFSET -5.241900 -0.000000 -0.000000
							CHANNELS 3 Zrotation Yrotation Xrotation
							JOINT RightHand
							{
								OFFSET -3.444170 -0.000000 -0.000000
								CHANNELS 3 Zrotation Yrotation Xrotation
								JOINT RightFingerBase
								{
									OFFSET 0.000000 0.000000 0.000000
									CHANNELS 3 Zrotation Yrotation Xrotation
									JOINT RightHandIndex1
									{
										OFFSET -0.622530 -0.000000 -0.000000
										CHANNELS 3 Zrotation Yrotation Xrotation
										End Site
										{
											OFFSET 0.000000 0.000000 0.000000
										}
									}
								}
								JOINT RThumb
								{
									OFFSET 0.000000 0.000000 0.000000
									CHANNELS 3 Zrotation Yrotation Xrotation
									End Site
									{
										OFFSET 0.000000 0.000000 0.000000
									}
								}
							}
						}
					}
				}
			}
		}
	}
}
MOTION
Frames: 4
Frame Time: 0.008333
-1.257414 16.583131 7.692700 -171.857158 41.677873 -161.869070 4.595921 -0.509871 -3.404199 -17.547950 19.572586 -55.652327 8.137027 17.898271 54.909456 -0.517598 3.816753 -3.136687 0.153200 2.522300 6.951500 -3.087132 0.299517 -1.686405 7.339303 0.093133 -22.068645 -0.191078 -8.403315 22.438975 3.150175 -14.116937 2.291200 -7.714800 15.905400 -51.528800 -3.198099 -4.863952 36.619149 0.544006 -5.149636 -1.413568 1.433597 -2.122378 1.573252 -8.112838 7.697343 -9.910257 -2.241358 14.497365 -3.316456 2.434000 9.131700 -4.644200 0.282175 0.246019 1.591024 -96.367531 -32.089863 54.067580 25.788538 -39.334775 -9.976077 -1.229519 -0.546523 -43.236993 15.052658 34.889196 9.347500 -7.125000 0.000000 0.000000 -20.806600 64.118300 -9.844400 -3.799478 1.769389 1.506124 90.587475 22.289311 40.413637 -35.270923 44.728232 -16.527490 -0.002821 -0.937131 -24.866317 -16.236695 26.090729 -7.351500 7.125000 0.000000 0.000000 8.498400 -2.304700 8.242000 
-1.247283 16.572230 7.672108 -171.568161 41.052231 -161.497882 4.643049 -0.488534 -3.421236 -17.910050 19.968737 -56.676392 8.257868 17.966064 55.256786 -0.553363 3.952224 -2.885099 0.130500 2.328800 6.415300 -3.094349 0.286930 -1.652550 7.705869 -0.533954 -22.187597 -0.158402 -8.327574 22.283394 3.094566 -13.891323 2.173625 -7.649800 15.855500 -51.291100 -2.843781 -4.846540 35.985304 0.583239 -5.006371 -1.451682 1.579423 -2.104377 1.532791 -8.215147 7.614072 -9.861671 -2.367120 14.399042 -3.350938 2.377500 9.084700 -4.659700 0.332236 0.240016 1.595482 -96.171228 -31.379065 54.031142 26.621689 -40.113389 -10.476575 -1.235462 -0.543424 -43.465942 15.838953 35.637009 9.992100 -7.125000 0.000000 0.000000 -20.640800 64.991000 -10.180300 -3.759215 1.774213 1.491541 90.047165 21.635855 40.745196 -36.068787 45.239889 -17.048321 -0.018486 -0.884947 -25.949306 -15.000438 25.318927 -6.558700 7.125000 0.000000 0.000000 9.182200 -3.337800 8.746900 
-1.167449 16.592161 7.657793 -171.661979 39.853352 -162.422654 4.599487 -0.421810 -3.407646 -18.010985 20.721878 -56.393104 8.354358 18.007949 55.504041 -0.533852 3.829392 -2.575262 0.029900 1.116400 3.069100 -3.058772 0.133843 -1.506295 8.109978 -1.020934 -20.798561 -0.198905 -8.261979 22.352594 3.303822 -14.509825 1.344963 -7.582200 15.803200 -51.043400 -2.969914 -4.800793 36.355222 0.608156 -4.907901 -1.441755 1.770859 -2.072974 1.298337 -7.844618 7.573587 -9.290979 -2.411963 14.291596 -3.450496 2.143500 8.974300 -4.782400 0.411957 0.188594 1.644204 -95.483577 -30.475992 53.716657 27.300526 -40.713016 -10.830125 -1.221196 -0.617968 -42.596163 12.676385 35.723247 8.161700 -7.125000 0.000000 0.000000 -24.355400 64.336900 -11.738600 -3.664293 1.783842 1.529669 90.054829 20.614993 41.157965 -36.524215 45.587820 -17.372759 0.007359 -0.902409 -25.859768 -16.039460 26.214914 -7.281900 7.125000 0.000000 0.000000 8.617600 -2.246700 8.369500 
-1.155006 16.575313 7.628943 -171.354235 39.203450 -162.162659 4.654290 -0.418803 -3.429209 -18.523138 21.164252 -57.383263 8.486849 18.068372 55.881386 -0.659601 4.480547 -3.047146 0.004600 0.436500 1.199300 -3.047583 0.090834 -1.442127 8.527574 -1.865565 -20.930067 -0.186510 -8.223841 22.296187 3.216468 -14.193772 1.329672 -7.632400 15.842100 -51.227400 -2.297149 -4.733225 35.739228 0.576819 -4.738234 -1.498100 1.101415 -1.931374 1.121744 -7.523509 7.465316 -9.276292 -2.406945 14.092930 -3.300116 2.164600 8.858000 -4.648100 0.375295 0.159194 1.586442 -94.629014 -29.538329 53.750781 28.173379 -41.333802 -11.245527 -1.153276 -0.702287 -42.161407 10.000526 34.898034 6.468900 -7.125000 0.000000 0.000000 -26.542600 63.050700 -12.066700 -3.715944 1.871961 1.511336 90.216547 19.661300 41.343560 -37.675857 46.338995 -18.128769 0.013798 -0.890151 -26.237760 -15.875651 25.254750 -6.967100 7.125000 0.000000 0.000000 8.638100 -3.251300 8.229900 
